# xmcd
#
# Track frame offsets: 
#        150
#        3984
#        16111
#        28395
#        38886
#        49959
#        62616
#        76526
#        88312
#        99932
#        113332
#        135030
#        142090
#        160425
#        171071
#
# Disc length: 2420 seconds
#
# Revision: 0
# Processed by: cddbd v1.5.2PL0 Copyright (c) Steve Scherf et al.
# Submitted via: ExactAudioCopy v0.95b4
#
DISCID=b009720f
DTITLE=Various Artist - COUNTRY Legends
DYEAR=2006
DGENRE=Country
TTITLE0=IS ANYBODY GOIN' TO SAN ANTONE? - CHARLEY PRIDE
TTITLE1=HOW MUCH LOVE -  BRENDA LEE
TTITLE2=SEVEN SPANISH ANGELS - WILLIE NELSON
TTITLE3=IF I WERE A CARPENTER - JOHNNY CASH
TTITLE4=HEY LORETTA - LORETTA LYNN
TTITLE5=AMANDA - DON WILLIAMS
TTITLE6=TOUCHING HOME - JERRY LEE LEWIS
TTITLE7=OKIE FROM MUSCOGEE - MERLE HAGGARD
TTITLE8=I LOVE - TOM T HALL
TTITLE9=STAND BY YOUR MAN - TAMMY WYNETTE
TTITLE10=EL PASO - MARTY ROBINS
TTITLE11=LUCKENBACH TEXAS - WILLIE NELSON
TTITLE12=ORANGE BLOSSOM SPECIAL - JOHNNY CASH
TTITLE13=I MISSED ME - JIM REEVES
TTITLE14=WASHBASH CANNONBALL - BOXCAR WILLIE
EXTD=
EXTT0=
EXTT1=
EXTT2=
EXTT3=
EXTT4=
EXTT5=
EXTT6=
EXTT7=
EXTT8=
EXTT9=
EXTT10=
EXTT11=
EXTT12=
EXTT13=
EXTT14=
PLAYORDER=
